<svg width="158" height="140" viewBox="0 0 158 140" fill="none" xmlns="http://www.w3.org/2000/svg">
<path d="M30.524 100.247C82.6611 104.385 137.601 83.8811 156.827 40.7126C156.911 40.4843 156.9 40.2254 156.796 39.9822C156.691 39.7389 156.499 39.5273 156.255 39.3852C156.011 39.2431 155.73 39.1798 155.463 39.2066C155.195 39.2334 154.959 39.3485 154.796 39.5314C125.852 74.7093 78.8362 91.2705 30.1526 98.1789C29.8937 98.2269 29.6738 98.3612 29.5327 98.5576C29.3916 98.754 29.3388 98.9994 29.3837 99.2494C29.4286 99.4994 29.5683 99.7375 29.7775 99.9204C29.9867 100.103 30.2515 100.219 30.524 100.247Z" fill="#7C00F4"/>
<path d="M53.171 74.5785C50.4604 75.1339 45.6195 77.414 26.9326 85.6722C2.74829 97.3241 12.9745 92.374 2.74829 97.3241C14.6708 101.178 45.3981 118.137 50.604 127.325" stroke="#7C00F4" stroke-width="5" stroke-miterlimit="1.5" stroke-linecap="round" stroke-linejoin="round"/>
</svg>
