<svg width="307" height="26" viewBox="0 0 307 26" fill="none" xmlns="http://www.w3.org/2000/svg">
<g clip-path="url(#clip0_2239_817)">
<path d="M0.211142 25.9998C2.32256 25.9998 4.22283 25.1446 6.33425 24.9735C8.44567 24.8025 10.3459 24.4604 12.4574 23.9472C17.1025 22.9209 22.381 22.9209 27.2373 22.2367C37.3721 20.6972 47.718 19.4998 58.064 18.4735C67.9876 17.6183 77.7001 15.7367 87.6238 14.8814C97.9697 14.0262 108.316 13.1709 118.662 12.4867C139.565 11.1183 160.468 10.0919 181.371 8.72353C202.063 7.35511 222.754 6.32879 243.235 6.32879C254.848 6.32879 266.461 6.84195 277.862 8.21037C282.93 8.89458 288.208 9.74984 293.065 11.1183C297.71 12.3156 302.988 13.8551 306.155 16.9341C305.733 16.5919 306.155 14.1972 306.155 13.6841C306.155 12.9998 306.578 10.9472 306.155 10.4341C303.411 7.86826 299.188 6.49984 295.176 5.30247C290.742 3.93405 286.097 3.07879 281.452 2.39458C271.317 0.855106 260.971 0.170895 250.836 -0.000157155C230.144 -0.342262 209.453 0.513001 188.972 1.71037C168.069 2.90774 147.166 4.27616 126.263 5.47353C105.993 6.84195 85.5124 8.38142 65.4539 11.2893C54.0523 12.8288 42.6506 13.6841 31.249 15.2235C25.7593 15.9077 20.2696 16.4209 14.5688 17.1051C12.0351 17.4472 9.92366 18.3025 7.38996 18.4735C4.85626 18.6446 2.5337 19.6709 0 19.6709C0.211142 19.6709 0 25.9998 0.211142 25.9998Z" fill="#7C00F4"/>
<path d="M14.3574 19.1583C15.9087 19.1583 17.46 18.8162 19.0112 18.4741C21.2274 18.132 23.2219 18.132 25.438 17.6188C29.8702 16.7635 34.524 16.9346 39.1778 16.4214C48.2639 15.3951 57.5715 14.5399 66.6576 13.8556C75.7436 13.1714 84.8297 11.9741 93.9157 11.4609C103.223 10.9477 112.531 10.2635 121.617 9.92143C140.454 8.89512 159.513 8.38196 178.349 7.35564C197.186 6.50038 216.245 5.64512 235.303 5.64512C245.941 5.64512 256.357 5.98722 266.994 6.84248C271.869 7.35564 276.745 7.8688 281.62 8.72406C286.052 9.57933 290.928 10.4346 294.474 12.8293C294.252 12.6583 294.474 10.6056 294.474 10.4346C294.474 10.0925 294.917 8.21091 294.474 8.03985C291.593 5.98722 287.382 5.13196 283.615 4.2767C279.404 3.42143 274.972 2.73722 270.54 2.22406C261.232 1.19775 251.924 0.855643 242.395 0.68459C223.558 0.513537 204.721 1.19775 186.106 2.05301C167.269 2.90827 148.21 3.76354 129.373 4.6188C110.758 5.47406 92.1429 6.50038 73.5275 8.55301C63.3334 9.57933 52.9177 10.0925 42.7236 11.2899C37.6266 11.803 32.3079 12.1451 27.2109 12.6583C24.9947 12.8293 23.0002 13.3425 20.7841 13.5135C18.568 13.6846 16.5735 14.3688 14.3574 14.1977V19.1583Z" fill="#7C00F4"/>
</g>
<defs>
<clipPath id="clip0_2239_817">
<rect width="307" height="26" fill="white"/>
</clipPath>
</defs>
</svg>
