<svg width="160" height="37" viewBox="0 0 160 37" fill="none" xmlns="http://www.w3.org/2000/svg">
<g clip-path="url(#clip0_2239_897)">
<path d="M28.2458 11.3115V13.8517C28.2458 14.138 28.1905 14.4216 28.0829 14.6862C27.9753 14.9508 27.8176 15.1912 27.6188 15.3937C27.4199 15.5962 27.1839 15.7569 26.9241 15.8664C26.6643 15.976 26.3858 16.0324 26.1046 16.0323H10.1675V12.8963C10.1677 12.476 10.3318 12.0729 10.6236 11.7758C10.9155 11.4786 11.3112 11.3116 11.7239 11.3115H28.2458Z" fill="url(#paint0_linear_2239_897)"/>
<path d="M20.5862 17.292V22.0128H11.5562C11.1879 22.0127 10.8348 21.8636 10.5743 21.5984C10.3139 21.3332 10.1676 20.9735 10.1675 20.5984V18.7064C10.1675 18.3312 10.3138 17.9715 10.5742 17.7062C10.8347 17.441 11.1879 17.292 11.5562 17.292H20.5862Z" fill="url(#paint1_linear_2239_897)"/>
<path d="M14.6534 23.0117H10.3168C10.2343 23.0117 10.1675 23.0798 10.1675 23.1638V27.5805C10.1675 27.6644 10.2343 27.7325 10.3168 27.7325H14.6534C14.7359 27.7325 14.8027 27.6644 14.8027 27.5805V23.1638C14.8027 23.0798 14.7359 23.0117 14.6534 23.0117Z" fill="url(#paint2_linear_2239_897)"/>
<path d="M18.1647 37C8.14868 37 0 28.7009 0 18.5C0 8.29908 8.14868 0 18.1647 0C28.1808 0 36.3295 8.29908 36.3295 18.5C36.3295 28.7009 28.1808 37 18.1647 37ZM18.1647 4.34254C10.4999 4.34254 4.26384 10.6937 4.26384 18.5C4.26384 26.3063 10.4999 32.6575 18.1647 32.6575C25.8296 32.6575 32.0656 26.3063 32.0656 18.5C32.0656 10.6937 25.83 4.34254 18.1647 4.34254Z" fill="url(#paint3_linear_2239_897)"/>
<path d="M29.9325 26.8535L26.5151 30.334L32.7616 36.6957L36.179 33.2153L29.9325 26.8535Z" fill="url(#paint4_linear_2239_897)"/>
<path d="M61.0614 11.0704H49.6154V17.4016H60.7356V22.4358H49.6142V32.7337H43.9712V6.03613H61.0602L61.0614 11.0704Z" fill="#080F33"/>
<path d="M62.9014 32.7339V6.08398H68.1753V32.7339H62.9014Z" fill="#080F33"/>
<path d="M84.4473 13.6641H89.7216V32.7339H84.4473V30.5981C83.1666 32.3779 81.1361 33.2678 78.3557 33.2678C76.1206 33.2678 74.2739 32.5687 72.8156 31.1703C71.3572 29.772 70.6282 27.8396 70.6284 25.3731V13.6641H75.9024V24.7629C75.9024 26.0346 76.2703 27.0071 77.0062 27.6805C77.742 28.3538 78.7233 28.6908 79.9501 28.6913C81.3124 28.6913 82.4027 28.2973 83.221 27.5093C84.0393 26.7213 84.4481 25.5393 84.4473 23.9632V13.6641Z" fill="#080F33"/>
<path d="M103.867 13.1299C106.101 13.1299 107.948 13.829 109.406 15.2274C110.865 16.6257 111.594 18.5581 111.594 21.0246V32.7337H106.32V21.6352C106.32 20.364 105.952 19.3914 105.216 18.7172C104.48 18.0431 103.499 17.7062 102.272 17.7068C100.909 17.7068 99.8188 18.1008 99.0016 18.8888C98.1844 19.6768 97.7756 20.8589 97.7753 22.4349V32.7337H92.501V13.6638H97.7753V15.7996C99.056 14.0201 101.086 13.1302 103.867 13.1299Z" fill="#080F33"/>
<path d="M125.74 18.3931H121.12V26.3265C121.12 26.9882 121.297 27.4713 121.651 27.776C122.005 28.0806 122.523 28.2522 123.205 28.2908C123.886 28.3291 124.731 28.3227 125.74 28.2716V32.734C122.114 33.1144 119.559 32.7966 118.074 31.7806C116.589 30.7646 115.846 28.9466 115.846 26.3265V18.3931H112.289V13.665H115.846V9.81195L121.12 8.32422V13.6637H125.74V18.3931Z" fill="#080F33"/>
<path d="M131.259 25.2203C131.968 27.6116 133.889 28.8072 137.024 28.8072C139.041 28.8072 140.567 28.1716 141.603 26.9004L145.855 29.1887C143.837 31.9098 140.867 33.2701 136.942 33.2696C133.562 33.2696 130.851 32.3162 128.806 30.4095C126.762 28.5027 125.74 26.0998 125.74 23.2007C125.74 20.3277 126.749 17.9312 128.765 16.0111C130.782 14.091 133.372 13.1313 136.533 13.1318C139.531 13.1318 142.005 14.098 143.954 16.0303C145.903 17.9625 146.877 20.3527 146.875 23.2007C146.871 23.8796 146.802 24.5564 146.671 25.222L131.259 25.2203ZM131.179 21.4065H141.605C141.304 20.1098 140.684 19.1435 139.744 18.5076C138.804 17.8718 137.735 17.554 136.535 17.5543C135.117 17.5543 133.945 17.8912 133.019 18.5651C132.092 19.239 131.479 20.1861 131.177 21.4065H131.179Z" fill="#080F33"/>
<path d="M153.786 16.9446C154.277 15.7243 155.088 14.809 156.219 14.1987C157.35 13.5884 158.61 13.2832 160 13.2832V18.7756C158.392 18.5979 156.954 18.9029 155.687 19.6906C154.42 20.4784 153.786 21.7878 153.786 23.619V32.7345H148.512V13.6647H153.786V16.9446Z" fill="#080F33"/>
</g>
<defs>
<linearGradient id="paint0_linear_2239_897" x1="-4.15324" y1="37.2889" x2="24.3008" y2="9.35048" gradientUnits="userSpaceOnUse">
<stop stop-color="#080F22"/>
<stop offset="1" stop-color="#6529E7"/>
</linearGradient>
<linearGradient id="paint1_linear_2239_897" x1="-2.84335" y1="38.6228" x2="25.6111" y2="10.6844" gradientUnits="userSpaceOnUse">
<stop stop-color="#080F22"/>
<stop offset="1" stop-color="#6529E7"/>
</linearGradient>
<linearGradient id="paint2_linear_2239_897" x1="-5.52116" y1="43.7111" x2="30.6384" y2="8.20681" gradientUnits="userSpaceOnUse">
<stop stop-color="#080F22"/>
<stop offset="1" stop-color="#6529E7"/>
</linearGradient>
<linearGradient id="paint3_linear_2239_897" x1="-2.21836" y1="39.2593" x2="26.2357" y2="11.3209" gradientUnits="userSpaceOnUse">
<stop stop-color="#080F22"/>
<stop offset="1" stop-color="#6529E7"/>
</linearGradient>
<linearGradient id="paint4_linear_2239_897" x1="10.8898" y1="52.6094" x2="39.3439" y2="24.671" gradientUnits="userSpaceOnUse">
<stop stop-color="#080F22"/>
<stop offset="1" stop-color="#6529E7"/>
</linearGradient>
<clipPath id="clip0_2239_897">
<rect width="160" height="37" fill="white"/>
</clipPath>
</defs>
</svg>
