<svg width="37" height="37" viewBox="0 0 37 37" fill="none" xmlns="http://www.w3.org/2000/svg">
<path d="M28.2458 11.3115V13.8517C28.2458 14.138 28.1905 14.4216 28.0829 14.6862C27.9753 14.9508 27.8176 15.1912 27.6188 15.3937C27.4199 15.5962 27.1839 15.7569 26.9241 15.8664C26.6643 15.976 26.3858 16.0324 26.1046 16.0323H10.1675V12.8963C10.1677 12.476 10.3318 12.0729 10.6236 11.7758C10.9155 11.4786 11.3112 11.3116 11.7239 11.3115H28.2458Z" fill="url(#paint0_linear_36_2244)"/>
<path d="M20.5862 17.292V22.0128H11.5562C11.1879 22.0127 10.8348 21.8636 10.5743 21.5984C10.3139 21.3332 10.1676 20.9735 10.1675 20.5984V18.7064C10.1675 18.3312 10.3138 17.9715 10.5742 17.7062C10.8347 17.441 11.1879 17.292 11.5562 17.292H20.5862Z" fill="url(#paint1_linear_36_2244)"/>
<path d="M14.6534 23.0117H10.3168C10.2343 23.0117 10.1675 23.0798 10.1675 23.1638V27.5805C10.1675 27.6644 10.2343 27.7325 10.3168 27.7325H14.6534C14.7359 27.7325 14.8027 27.6644 14.8027 27.5805V23.1638C14.8027 23.0798 14.7359 23.0117 14.6534 23.0117Z" fill="url(#paint2_linear_36_2244)"/>
<path d="M18.1647 37C8.14868 37 0 28.7009 0 18.5C0 8.29908 8.14868 0 18.1647 0C28.1808 0 36.3295 8.29908 36.3295 18.5C36.3295 28.7009 28.1808 37 18.1647 37ZM18.1647 4.34254C10.4999 4.34254 4.26384 10.6937 4.26384 18.5C4.26384 26.3063 10.4999 32.6575 18.1647 32.6575C25.8296 32.6575 32.0656 26.3063 32.0656 18.5C32.0656 10.6937 25.83 4.34254 18.1647 4.34254Z" fill="url(#paint3_linear_36_2244)"/>
<defs>
<linearGradient id="paint0_linear_36_2244" x1="-4.15324" y1="37.2889" x2="24.3008" y2="9.35048" gradientUnits="userSpaceOnUse">
<stop stop-color="#080F22"/>
<stop offset="1" stop-color="#6529E7"/>
</linearGradient>
<linearGradient id="paint1_linear_36_2244" x1="-2.84335" y1="38.6228" x2="25.6111" y2="10.6844" gradientUnits="userSpaceOnUse">
<stop stop-color="#080F22"/>
<stop offset="1" stop-color="#6529E7"/>
</linearGradient>
<linearGradient id="paint2_linear_36_2244" x1="-5.52116" y1="43.7111" x2="30.6384" y2="8.20681" gradientUnits="userSpaceOnUse">
<stop stop-color="#080F22"/>
<stop offset="1" stop-color="#6529E7"/>
</linearGradient>
<linearGradient id="paint3_linear_36_2244" x1="-2.21836" y1="39.2593" x2="26.2357" y2="11.3209" gradientUnits="userSpaceOnUse">
<stop stop-color="#080F22"/>
<stop offset="1" stop-color="#6529E7"/>
</linearGradient>
</defs>
</svg>
