<svg width="149" height="129" viewBox="0 0 149 129" fill="none" xmlns="http://www.w3.org/2000/svg">
<path d="M66.7508 46.9615C67.0066 45.4115 63.7516 40.0408 60.9151 40.0408C58.0786 40.0408 54.2578 43.4895 54.2578 45.334C54.2578 47.1785 57.8848 51.6348 60.2098 51.8905C62.4418 51.8905 66.5183 48.6123 66.7508 46.9615ZM65.2706 46.7368C64.9373 47.8218 61.4731 50.5188 60.1556 50.3948C58.6056 49.8445 55.7613 46.388 55.7536 45.334C55.8156 44.4583 58.7373 41.5365 60.9151 41.5365C62.7441 41.5598 65.4178 45.9773 65.3016 46.7368H65.2706Z" fill="#070C29"/>
<path d="M74.0609 114.417C72.1001 114.417 70.0851 114.789 69.5891 115.471C68.2406 117.796 68.6049 124.771 73.4176 123.787C75.6729 123.787 78.1761 123.097 78.6644 122.136C79.8424 118.75 79.2456 113.635 74.0609 114.417ZM77.3624 121.392C72.5341 123.431 69.1474 122.508 70.7671 116.409C75.2776 115.239 78.8814 115.355 77.3624 121.4V121.392Z" fill="#070C29"/>
<path d="M135.324 114.874C129.542 112.635 123.071 115.89 126.504 122.717C128.008 124.686 134.89 123.919 135.998 122.717C137.106 121.516 136.99 115.851 135.324 114.874ZM134.905 121.687C130.255 123.322 124.605 122.857 128.124 116.471C128.17 115.959 133.874 115.425 134.525 116.138C135.176 116.851 135.525 120.664 134.905 121.648V121.687Z" fill="#070C29"/>
<path d="M69.8526 61.5858C72.6581 61.1983 76.2541 57.6488 76.0526 55.8275C75.8511 54.0063 72.1776 49.333 69.9456 49.1858C67.7446 49.1858 63.1798 52.9833 63.1256 54.727C63.0713 56.308 66.9308 61.919 69.8526 61.5858ZM64.5903 54.7735C64.9158 53.6188 68.4653 50.6738 69.9223 50.6815C71.0538 50.9063 74.3321 54.51 74.5258 56.0058C71.4491 61.8803 67.2098 60.9038 64.5903 54.7735Z" fill="#070C29"/>
<path d="M132.981 84.0685C126.936 83.2935 126.673 89.199 128.044 93.0042C129.129 94.6162 134.678 94.7092 136.476 93.4382C138.577 91.9502 138.143 86.1377 137.189 85.014C136.655 84.394 134.841 84.0685 132.981 84.0685ZM129.3 92.1827C128.75 91.183 128.804 87.2227 129.548 86.161C129.912 85.51 135.407 85.386 136.058 86.0137C136.408 87.0505 136.553 88.1456 136.484 89.2377C137.019 93.849 131.408 93.1282 129.3 92.1827Z" fill="#070C29"/>
<path d="M128.24 98.9023C126.589 101.948 126.915 109.752 132.89 108.807C139.09 109.582 138.703 102.956 137.083 99.1426C135.913 97.4996 129.333 97.5383 128.24 98.9023ZM136.099 106.652C129.899 108.884 127.767 106.156 129.379 99.9098C130.054 99.2356 135.463 99.3596 135.843 100.057C136.633 101.196 136.695 105.505 136.099 106.614V106.652Z" fill="#070C29"/>
<path d="M43.9494 89.811C40.1907 90.1675 30.7744 92.4073 36.1994 96.166C37.2999 96.7395 44.0192 95.0422 45.4297 93.2675C46.3829 92.0817 45.9412 89.563 43.9494 89.811Z" fill="#070C29"/>
<path d="M127.89 72.3347C126.937 73.7065 126.635 77.6822 127.844 79.1547C128.874 80.4257 135.594 81.131 137.268 79.798C138.291 78.7517 139.244 73.381 136.996 71.9782C135.113 70.8157 129.091 70.8002 127.89 72.3347ZM136.229 73.2725C137.508 74.3575 136.617 78.2247 136.229 78.6975C135.136 79.4027 128.975 78.6975 128.983 78.1705C128.293 77.3955 128.464 74.2025 129.084 73.226C129.704 72.5362 135.222 72.3735 136.229 73.2725Z" fill="#070C29"/>
<path d="M14.1815 71.8547C15.1813 68.9795 13.1508 60.4467 15.2975 58.6797C21.4123 60.2297 29.697 58.5402 33.8045 52.3325C40.5005 54.8977 42.221 61.6325 42.221 61.6325C47.7855 55.6262 36.5248 51.139 34.13 50.8135C30.844 39.3125 9.9345 44.7452 9.95 56.6725C6.075 59.9895 3.23075 66.205 6.3385 70.5372C8.865 73.3272 13.8715 73.5597 14.1815 71.8547Z" fill="#070C29"/>
<path d="M41.1747 78.1784C39.4309 78.7519 39.6789 80.2244 34.5329 81.1776C24.0859 81.8364 24.7679 87.4861 33.8432 87.2769C48.6379 85.5099 42.9107 77.6049 41.1747 78.1784Z" fill="#070C29"/>
<path d="M12.4445 82.3243C9.84052 83.0993 9.22051 86.6876 10.8558 86.9123C19.962 88.1756 20.8843 86.6643 21.543 85.6413C22.7985 83.6728 15.7538 81.3866 12.4445 82.3243Z" fill="#070C29"/>
<path d="M88.7379 100.289C83.2586 99.3901 82.8866 106.179 85.3821 108.589C86.6221 109.612 91.5279 110.015 93.2251 109.016C94.9224 108.016 94.9689 102.692 93.8761 101.459C93.3336 100.847 90.9699 100.289 88.7379 100.289ZM92.4424 107.737C91.6674 108.419 86.4981 107.931 86.3276 107.435C82.9099 101.304 88.5829 100.987 92.7756 102.482C93.3336 103.451 93.1011 107.125 92.4424 107.737Z" fill="#070C29"/>
<path d="M117.259 113.511C111.206 112.433 110.881 120.408 113.384 122.958C114.849 124.004 120.22 124.035 121.746 122.958C123.273 121.881 123.475 115.805 122.266 114.596C121.677 114.007 119.452 113.511 117.259 113.511ZM120.863 121.718C120.359 122.392 114.663 122.353 114.252 121.718C113.609 121.152 112.888 117.293 114.027 115.712C114.57 114.619 120.561 114.991 121.188 115.611C121.777 116.696 121.584 121.028 120.863 121.718Z" fill="#070C29"/>
<path d="M90.4663 52.0994C88.6218 52.0994 84.1423 56.1837 84.4833 58.2529C84.8243 60.3222 88.1723 64.6002 90.2028 64.7087C98.3248 62.4534 97.7513 54.7964 90.4663 52.0994ZM94.814 58.7722C94.4575 60.7949 91.2878 63.2052 90.164 63.2129C89.1178 63.0269 86.196 59.6324 85.9248 58.0204C85.9248 56.9664 89.1488 53.7502 90.3965 53.5952C91.2025 53.6494 95.1008 57.0129 94.814 58.7877V58.7722Z" fill="#070C29"/>
<path d="M113.476 70.8551C112.763 72.2656 112.755 74.7301 112.701 76.0166C112.647 78.6206 113.84 79.5971 118.126 79.6979C121.451 79.7676 122.923 79.5119 123.551 77.4349C124.117 75.6911 124.241 72.2501 123.264 70.6381C122.117 69.3981 114.801 69.3516 113.476 70.8551ZM122.598 75.9469C122.505 79.1709 115.522 78.2719 114.313 77.4969C113.724 76.5514 113.786 72.8469 114.592 71.8471C114.987 71.1419 121.567 71.0179 122.28 71.6999C122.774 73.0595 122.884 74.5289 122.598 75.9469Z" fill="#070C29"/>
<path d="M99.3693 116.099C96.959 120.098 98.2378 124.779 103.299 124.097C105.081 124.097 106.933 123.818 107.794 123.322C109.468 122.299 109.607 116.758 108.476 115.479C107.468 114.309 101.036 114.1 99.3693 116.099ZM107.011 122.013C106.616 122.625 100.811 122.788 100.361 122.168C99.5863 121.509 99.5863 117.835 100.524 117.045C100.904 116.076 106.414 115.789 107.383 116.487C107.995 117.525 107.739 121.4 107.05 122.013H107.011Z" fill="#070C29"/>
<path d="M108.176 86.0601C106.455 84.8976 101.015 85.5874 99.7516 86.4244C98.3566 87.3311 98.2636 91.8494 99.5656 93.9341C100.868 96.0189 107.819 95.3369 109.021 94.3061C110.222 93.2754 109.617 87.1529 108.176 86.0601ZM107.99 93.1901C107.215 93.7791 101.333 94.0349 100.821 93.1204C99.8446 91.5704 100.046 88.2611 100.596 87.6566C100.682 87.2536 106.424 86.5716 107.246 87.2304C108.067 87.8891 108.478 92.0974 107.99 93.1746V93.1901Z" fill="#070C29"/>
<path d="M127.239 17.9219C134.571 17.4492 135.4 11.2957 135.4 11.2957C135.4 11.2957 135.02 11.5127 133.238 11.0399C131.455 10.5672 126.534 3.28992 117.017 3.28992C111.84 3.28992 108.67 7.53692 110.468 10.4664C112.266 13.3959 121.403 18.3017 127.239 17.9219Z" fill="#070C29"/>
<path d="M106.338 108.52C107.888 107.443 107.81 102.204 106.655 101.034C105.586 99.9796 98.8355 98.9876 97.4173 101.034C94.0538 109.21 100.169 111 106.338 108.52ZM98.7968 107.59C98.107 106.962 97.5955 103.351 98.634 101.902C99.285 100.848 105.16 101.561 105.609 102.111C106.221 103.01 106.128 106.683 105.485 107.296C105.501 107.823 99.2075 108.195 98.7968 107.59Z" fill="#070C29"/>
<path d="M73.7258 86.6726C67.797 86.0448 67.7428 91.5473 69.533 95.3526C70.68 96.8251 77.283 96.7941 78.3525 95.5696C80.135 92.5316 79.3213 85.7736 73.7258 86.6726ZM77.2443 94.5388C76.632 95.1511 71.0055 95.0193 70.6955 94.4071C69.9748 93.4073 69.9205 89.7571 70.4475 88.7961C75.8183 87.0446 78.957 88.5248 77.221 94.5388H77.2443Z" fill="#070C29"/>
<path d="M77.8811 108.9C79.4776 105.226 79.7566 99.096 73.8278 99.809C68.1626 98.91 67.7208 106.187 69.3561 109.109C70.4101 110.403 76.7651 110.45 77.8811 108.9ZM70.9061 101.925C71.7663 101.026 76.4396 101.266 76.9201 101.925C77.4548 102.932 77.4006 106.908 76.6798 107.985C76.3621 108.613 71.0921 108.76 70.4798 108.125C69.8986 107.001 69.8521 102.645 70.9061 101.925Z" fill="#070C29"/>
<path d="M113.359 93.8566C114.809 94.7246 120.203 95.0733 121.675 93.9108C123.837 91.5858 123.729 84.1923 118.288 85.0991C116.095 85.0991 113.747 85.6958 113.204 86.3391C112.15 87.6023 111.701 92.9111 113.359 93.8566ZM114.32 87.3466C119.552 85.5021 123.349 86.5716 120.722 92.7716C120.257 93.3683 114.576 93.1436 114.142 92.5933C113.708 92.0431 113.631 88.3541 114.32 87.3466Z" fill="#070C29"/>
<path d="M88.0333 48.682C85.7858 41.5365 79.8028 38.8937 75.7805 46.9305C74.9203 49.6275 79.8028 54.5332 81.3915 54.7657C83.4065 54.9285 88.0488 50.7357 88.0333 48.682ZM81.6008 53.2777C76.7028 50.1777 75.1605 45.5277 82.0735 43.2725C83.5305 43.7297 86.5065 47.566 86.5375 48.6975C86.5685 49.829 82.8795 53.1537 81.6008 53.2777Z" fill="#070C29"/>
<path d="M118.143 100.437C116.182 100.437 114.159 100.964 113.578 101.553C112.377 102.762 111.981 108.652 113.578 109.775C115.174 110.899 120.468 110.597 121.847 109.597C124.102 107.427 123.498 99.522 118.143 100.437ZM121.002 108.388C120.886 108.9 115.081 109.287 114.5 108.566C113.826 108.101 114.074 103.072 114.671 102.614C120.336 100.522 122.955 103.01 121.002 108.388Z" fill="#070C29"/>
<path d="M87.7905 114.658C82.0632 113.883 80.8154 119.804 82.8847 123.144C84.1557 124.353 91.1074 124.307 92.2312 122.943C94.2927 118.975 93.7502 114.023 87.7905 114.658ZM91.1229 121.935C90.8052 122.563 84.5665 122.71 83.9387 122.067C83.5435 121.556 83.1095 117.65 84.3882 116.766C85.4035 115.883 90.8207 116.107 91.3632 116.766C91.9057 117.642 91.8359 121.075 91.1229 121.935Z" fill="#070C29"/>
<path d="M114.516 31.4229C115.826 32.0119 118.67 28.1602 116.368 27.6177C115.299 28.2377 110.842 27.3542 110.943 28.9584C111.247 29.6635 111.743 30.2686 112.375 30.7045C113.007 31.1404 113.749 31.3894 114.516 31.4229ZM112.873 29.2297C113.477 29.0669 116.856 28.0594 115.485 29.9194C114.981 30.3457 112.788 30.4929 112.873 29.2297Z" fill="#001434"/>
<path d="M104.012 19.3327C105.197 19.015 106.213 18.457 107.739 18.829C107.911 18.8198 108.075 18.7538 108.205 18.6412C108.335 18.5286 108.424 18.3758 108.458 18.207C108.492 18.0383 108.469 17.8631 108.392 17.709C108.315 17.555 108.189 17.431 108.034 17.3565C106.554 17.0104 104.998 17.22 103.663 17.9455C103.175 18.3175 103.128 19.5497 104.012 19.3327Z" fill="#001434"/>
<path d="M145.684 56.6722C144.754 52.6422 144.359 50.7357 141.329 50.8132C141.104 40.6297 138.918 33.0735 133.369 27.6252C134.027 26.9165 134.531 26.0796 134.85 25.167C135.169 24.2544 135.296 23.2857 135.223 22.3217C135.15 21.3577 134.879 20.4191 134.427 19.5647C133.975 18.7103 133.351 17.9585 132.594 17.3565C133.956 16.3706 135.059 15.0705 135.811 13.5667C136.175 12.6677 136.446 11.5905 135.749 10.9007C135.175 10.335 134.555 10.521 134.082 10.459C133.245 10.3582 132.47 10.0405 130.649 6.92499C127.224 0.903236 116.699 -1.04976 109.027 2.91049C102.517 6.27399 99.4398 11.7765 99.6258 19.7435C99.7731 23.5255 99.3468 29.0435 102.656 32.2752C99.3871 33.9858 95.8523 35.1308 92.2013 35.662C90.3103 34.36 87.4118 32.996 86.9933 36.5532C86.8228 37.9715 84.9163 38.3202 84.1491 38.9712C78.4761 33.647 74.6941 44.776 70.5013 45.3495C68.3003 43.8692 63.8751 34.7552 61.5733 35.4372C58.8143 35.4372 50.5451 41.738 50.1188 44.7372C49.9251 46.14 54.1256 51.4952 57.3418 55.3625C56.2865 55.7134 55.2909 56.223 54.3891 56.8737C53.0328 56.3235 51.4983 56.0522 50.8783 56.4242C49.3283 57.3465 50.1886 59.9427 49.8863 60.9425C49.6228 61.795 48.5301 63.0117 44.1823 66.3675C44.172 65.5883 44.1021 64.811 43.9731 64.0425C52.2268 55.9747 42.8571 48.9997 34.9288 47.1397C29.3953 32.5155 6.92808 45.396 6.80408 55.6647C-2.30992 62.6397 -0.945924 76.365 11.0511 76.3417C11.1155 76.7635 11.2832 77.1629 11.5393 77.5042C5.93608 81.4722 3.85908 89.974 4.24658 94.7247C4.55658 98.5067 8.48583 101.421 13.1436 103.436C12.4538 108.186 8.87333 125.136 12.3221 127.259C23.9936 127.949 41.7178 127.22 52.8623 127.259C56.7373 126.213 54.3116 122.191 51.4518 121.013C50.8628 112.1 48.1581 96.9877 48.7703 88.7262C58.7756 80.7747 64.8981 75.0397 65.9753 64.9957C68.2073 67.1735 68.7188 67.1812 68.9746 67.1812C70.7648 67.7702 77.4996 59.9117 79.7238 59.098C82.1108 59.7955 86.7841 69.8627 89.3261 69.6767C93.1468 69.3822 100.804 62.1825 100.951 59.2685C100.951 58.168 98.2851 54.4712 94.9138 50.418C96.7273 50.1157 97.9131 49.643 99.8583 49.3097C101.447 51.5262 103.555 51.7897 106.376 52.0997C100.773 56.9977 101.602 67.282 109.6 68.4755C108.965 71.281 108.608 79.1937 109.213 81.8442C90.3956 80.5345 95.8516 82.6192 94.7821 96.67C92.5966 97.5302 84.1956 96.143 82.2116 97.011C82.4441 87.8582 82.2658 83.3942 80.6616 82.7122C78.3366 81.7357 67.9361 81.573 66.1691 82.7122C65.3243 83.2702 64.9833 85.5565 65.1848 105.187C65.2701 113.402 65.3321 123.88 66.2233 125.787C70.4626 130.266 115.01 126.763 126.774 127.949C140.98 127.058 141.057 131.444 139.817 111.992C141.174 109.023 140.693 77.0237 140.461 68.7855C142.538 70.2735 147.645 72.7147 148.133 68.9482C148.125 67.2432 146.575 60.6247 145.684 56.6722ZM139.864 45.8997C137.178 46.3675 134.451 46.5519 131.726 46.45C133.098 46.14 133.765 44.0552 131.912 44.5822C130.362 45.6517 127.169 46.9847 123.325 48.1395C123.945 44.714 123.023 39.506 120.156 36.654C120.931 36.1657 122.589 35.8325 122.039 34.701C121.925 34.5408 121.754 34.4301 121.561 34.3912C121.368 34.3524 121.168 34.3883 121 34.4917C118.094 36.4137 112.08 37.7157 107.717 38.1032C106.508 38.049 105.725 36.1812 104.16 36.4137C104.068 35.4105 104.163 34.3989 104.439 33.43C112.568 37.1577 127.944 33.9802 132.137 28.5397C136.632 32.314 139.321 39.4827 139.864 45.8997ZM109.794 4.20474C128.874 -2.99501 128.572 12.071 134.594 12.0477C130.719 22.1227 118.931 17.7052 110.189 13.0707C105.5 10.583 106.089 7.43649 109.794 4.20474ZM105.919 6.84749C105.144 8.62224 104.772 10.3892 105.71 11.9392C103.909 12.6503 102.394 13.9363 101.401 15.5972C101.813 12.2429 103.4 9.14305 105.88 6.84749H105.919ZM101.176 20.7975C103.842 8.25799 109.825 15.2485 117.04 17.8292C116.374 18.1005 114.676 18.6042 115.304 19.6737C115.425 19.8285 115.601 19.9314 115.795 19.9616C115.989 19.9919 116.188 19.9471 116.35 19.8365C118.675 18.7515 120.225 18.7127 121.52 19.108C127.115 20.7742 132.168 16.783 132.959 19.883C134.237 23.5255 134.268 25.959 130.672 27.633C127.735 31.4615 120.954 33.43 112.127 33.4687C102.214 33.4997 100.967 27.974 101.137 20.813L101.176 20.7975ZM35.2311 48.6975C41.8263 50.3715 49.3981 56.0755 43.6321 62.2677C42.4386 58.6252 41.4311 55.3625 34.6886 51.844C35.0792 50.8594 35.251 49.8016 35.1923 48.744L35.2311 48.6975ZM41.6481 60.958C48.8711 79.0232 19.9481 83.5957 12.5856 76.1402C18.2663 74.3345 13.0041 63.1435 15.8483 59.5707C23.8928 61.64 31.2243 58.1447 34.0453 53.2002C37.4807 54.726 40.1917 57.5231 41.6093 61.0045L41.6481 60.958ZM2.89808 69.9247C0.852076 65.3832 4.06833 60.2372 8.32308 55.9205C7.54808 49.4492 23.8773 36.5455 31.3173 44.2102C39.1603 52.2625 26.1403 61.454 15.8173 58.0207C14.6491 57.6249 13.5882 56.9644 12.7173 56.091C9.54758 55.44 13.0893 58.7957 14.3681 59.036C12.0431 62.291 15.1431 71.0872 13.0273 74.1872C9.13683 76.1945 4.04508 73.3502 2.85158 69.9712L2.89808 69.9247ZM5.78108 94.5465V92.9965C9.20658 90.78 16.2591 90.4622 22.0561 92.4307C24.2958 92.9035 26.1093 94.7557 28.0933 93.3142C29.2326 92.1827 30.4183 91.9502 30.7748 92.2137C31.3018 92.5625 30.3176 93.9265 30.7748 94.5387C32.3248 96.0112 34.1151 96.2127 33.9136 98.5455C29.3953 97.2202 29.2636 99.7467 33.6966 100.033C33.4738 100.851 33.112 101.625 32.6271 102.32C30.4726 101.731 28.7521 101.63 28.7521 102.041C28.6901 102.916 30.1626 103.296 31.4336 103.668C29.0543 107.163 20.8471 105.133 14.7401 102.475C10.0358 100.599 6.30033 97.6852 5.73458 94.593L5.78108 94.5465ZM34.0763 125.818C28.1476 125.864 16.2513 126.298 12.7871 125.756C12.6183 125.35 12.5288 124.916 12.5236 124.477C14.9726 123.206 34.6808 118.447 34.0298 125.864L34.0763 125.818ZM35.7271 125.818C36.1301 124.407 35.4016 123.09 34.2313 122.121C37.7653 121.036 45.2906 120.47 50.9636 122.547C60.5503 127.833 39.4858 125.345 35.6806 125.856L35.7271 125.818ZM49.9406 120.656C44.613 119.297 39.0264 119.324 33.7121 120.734C34.3786 119.098 37.0446 105.009 33.8206 108.946C34.0763 112.309 33.1231 117.432 32.0613 121.075C25.5668 119.385 17.2356 121.075 12.4693 122.896C12.6328 116.559 13.325 110.247 14.5386 104.025C22.5908 106.474 29.9223 109.643 34.2468 102.397C38.1218 102.126 44.4071 101.421 47.8093 99.6925C48.3906 104.707 49.3283 116.525 49.8941 120.695L49.9406 120.656ZM49.2508 86.502C49.9328 83.0842 49.7856 80.8755 44.4381 76.3417C44.2832 76.2669 44.1078 76.2457 43.9396 76.2815C43.7713 76.3173 43.6198 76.408 43.5088 76.5395C43.3978 76.6709 43.3337 76.8355 43.3265 77.0073C43.3194 77.1792 43.3696 77.3486 43.4693 77.4887C52.3508 84.735 44.7326 88.4007 47.6698 98.034C45.5696 99.305 40.9351 100.312 34.9598 100.785C35.9286 97.9797 34.9133 94.8642 32.1001 93.9807C33.2316 89.7027 29.3023 89.9817 26.9696 92.299C25.1871 92.4385 24.4121 91.524 22.4591 91.059C23.2026 89.57 24.1931 88.2178 25.3886 87.06C25.9543 83.1152 21.2733 89.3307 21.0176 90.6095C15.4686 89.1757 9.58633 89.447 5.88958 91.2605C6.41658 86.8352 8.52458 81.2785 12.7018 78.4885C21.0098 83.0532 39.8268 81.5885 43.5081 70.909C45.2828 75.7527 50.7001 80.1547 54.5286 82.0302C52.8324 83.6241 51.0553 85.1296 49.2043 86.5407L49.2508 86.502ZM63.2628 70.227C62.0073 73.6912 59.5273 77.0547 55.6833 80.922C51.1263 78.9225 44.7171 73.1177 44.4458 68.1345C46.8406 65.6002 51.2348 64.0425 51.4208 60.6015C51.3278 59.1677 51.3356 57.951 51.6456 57.7572C51.9556 57.5635 53.0871 58.0052 53.4513 58.168C55.5283 59.1135 58.1013 56.0832 58.5121 56.711C58.9228 57.3387 59.4033 57.765 59.7676 58.1757C56.1948 60.927 57.7991 62.8722 60.7518 59.315C61.5268 60.183 62.2088 60.958 62.8366 61.64C59.3801 65.0887 60.8758 67.3207 63.8208 62.818C65.2391 65.2205 64.0766 68.1112 63.2163 70.258L63.2628 70.227ZM99.5251 59.2375C99.5251 60.3147 96.4251 63.8875 92.8911 66.4295C90.6746 67.9795 89.5276 68.243 89.2098 68.1345C87.1096 66.5225 81.7156 56.8815 79.7781 57.579C77.8561 57.269 71.3073 65.2127 69.0831 65.6467C64.5958 62.3762 52.4981 47.4885 51.6533 44.9077C52.0253 42.7997 59.2716 36.933 61.5733 36.933C63.7666 37.2197 68.1686 46.853 70.2688 46.8297C73.6633 47.6047 78.2978 38.7465 81.4753 38.8085C83.2811 39.0022 98.6028 55.9747 99.4786 59.2685L99.5251 59.2375ZM99.1221 47.9147C97.3818 48.3806 95.6173 48.7505 93.8366 49.023C91.1528 45.8509 88.3074 42.8192 85.3116 39.94C87.0863 38.4907 87.5746 39.3355 88.4116 35.972C88.5976 35.2512 89.5508 35.3287 90.4576 36.1812C91.6433 37.2507 92.4881 37.1422 94.0768 36.8555C96.8978 36.344 100.517 34.732 102.834 33.8795C102.656 34.9325 102.638 36.0063 102.78 37.0647C102.374 37.6487 102.145 38.3377 102.121 39.0487C101.068 39.0588 100.061 39.4818 99.3157 40.2266C98.5709 40.9715 98.1479 41.9789 98.1378 43.0322C98.038 44.7225 98.3603 46.411 99.0756 47.9457L99.1221 47.9147ZM102.4 49.643C101.742 49.2212 101.208 48.633 100.85 47.938C101.672 47.938 103.338 48.4805 103.385 47.2327C103.365 47.0409 103.275 46.8631 103.132 46.7342C102.989 46.6052 102.802 46.5343 102.61 46.5352C101.766 46.5652 100.923 46.4739 100.106 46.264C99.8689 45.5726 99.7205 44.8538 99.6646 44.125C100.641 44.3187 102.648 45.086 102.896 43.722C102.896 43.5164 102.815 43.3193 102.669 43.174C102.524 43.0286 102.327 42.947 102.121 42.947C101.325 42.9841 100.53 42.8411 99.7963 42.5285C100.013 39.8702 103.733 41.4667 103.671 38.9945C103.788 38.173 103.888 37.9637 104.237 37.8862C105.438 37.832 106.283 39.847 107.926 39.5602C111.602 39.2358 115.223 38.4548 118.706 37.2352C121.806 39.7385 122.667 45.5122 121.752 48.558C115.413 50.108 108.073 51.9447 102.4 49.643ZM106.275 65.2747C101.478 60.431 105.694 50.79 112.964 51.844C107.748 56.6412 107.399 64.1665 113.878 67.1425C111.158 67.344 108.027 67.127 106.275 65.2747ZM82.1961 98.5997C82.8936 97.9797 86.8461 98.189 88.9618 98.3052C90.6913 98.4587 92.4302 98.4742 94.1621 98.3517C96.1461 98.096 96.2623 97.3675 96.3941 96.1275C96.7738 92.6632 95.9678 85.1225 96.6498 83.7662C98.3548 82.3712 107.942 83.1462 111.421 83.34C114.049 83.4795 122.062 82.813 124.178 83.7507C124.666 84.6962 124.697 90.3537 124.279 96.9257C107.128 96.546 109.724 93.5545 109.244 111.031C103.338 111.403 85.4201 112.092 82.3356 110.721C81.7621 109.791 82.1031 101.405 82.1883 98.5997H82.1961ZM91.2558 126.345C80.6306 126.461 68.5793 126.593 67.6183 125.229C66.3628 119.385 66.2776 90.1755 67.1068 83.9057C68.6568 83.247 77.9568 83.1772 80.0493 84.0375C81.5296 85.324 80.4601 103.226 80.3671 106.908C80.2198 112.86 80.5453 112.596 84.6993 112.774C86.9003 112.875 90.5118 112.774 94.9991 112.96C94.4333 113.735 94.2241 123.074 95.0611 126.306L91.2558 126.345ZM137.934 125.849C132.3 127.065 107.407 126.011 96.7893 126.29C96.3011 126.29 96.1771 123.655 96.0996 122.082C95.7043 114.185 96.4716 113.1 96.5878 112.984C98.9128 112.209 108.755 113.565 110.166 112.209C111.491 112.759 110.515 99.9095 111.088 98.5067C113.63 97.4992 120.946 98.4137 124.007 98.375C125.519 115.425 120.311 111.713 138.345 112.247C139.143 119.215 138.965 125.376 137.926 125.88L137.934 125.849ZM139.205 72.7225C138.655 81.573 139.786 104.187 138.74 110.806C135.981 110.294 128.665 111.069 125.945 110.612C124.193 80.5577 132.78 81.4877 111.476 81.852C109.375 81.3405 110.879 75.8535 110.592 73.8927C110.654 71.8235 110.747 68.9792 111.142 68.6305C116.691 68.2352 125.867 68.7777 130.316 68.5685C133.108 68.4444 135.904 68.4651 138.694 68.6305C138.825 68.677 139.337 69.018 139.197 72.7535L139.205 72.7225ZM140.228 67.2355C131.657 66.5535 128.549 67.5997 119.303 66.91C108.988 66.4527 107.81 56.835 115.831 51.41C120.291 50.6387 124.661 49.4183 128.874 47.7675C132.575 48.102 136.303 47.9744 139.972 47.3877C140.013 48.5598 139.967 49.7333 139.833 50.8985C139.996 50.9915 123.287 51.7897 128.03 53.8977C132.106 53.177 135.78 52.7585 138.306 52.526C139.802 56.5947 140.275 63.2985 140.22 67.2665L140.228 67.2355ZM146.141 69.3512C144.513 69.3684 142.936 68.7801 141.716 67.7005C141.809 63.8255 141.375 56.8505 139.841 52.3787C141.05 52.3787 142.499 51.8362 143.065 53.1537C143.84 55.3237 147.994 68.6537 146.134 69.3822L146.141 69.3512Z" fill="#001434"/>
<path d="M130.037 25.1607C131.587 26.6332 133.509 23.51 131.525 22.5955C130.091 21.9367 128.797 24.006 130.037 25.1607Z" fill="#001434"/>
<path d="M118.073 26.0054C121.173 28.3304 128.745 25.1684 124.467 20.5804C121.003 19.0459 113.144 21.3942 118.073 26.0054ZM121.568 21.6344C122.337 21.5991 123.105 21.6988 123.839 21.9289C124.366 22.1072 124.668 24.9747 122.925 24.9514C122.208 23.7023 121.252 22.6068 120.111 21.7274C120.595 21.6663 121.081 21.6352 121.568 21.6344Z" fill="#001434"/>
<path d="M112.645 26.9898C112.816 26.9982 112.984 26.9501 113.124 26.8529C113.265 26.7557 113.369 26.6149 113.421 26.4524C113.473 26.2898 113.47 26.1146 113.413 25.9539C113.355 25.7932 113.246 25.6561 113.102 25.5638C112.996 25.5467 112.899 25.4903 112.832 25.4057C112.764 25.3211 112.731 25.2144 112.738 25.1065C112.816 24.378 113.451 23.2931 114.288 24.2618C116.977 25.3081 114.986 21.464 112.955 22.5258C111.134 23.1535 110.436 26.2923 112.645 26.9898Z" fill="#001434"/>
<path d="M33.4245 74.04C33.1434 74.3185 32.7998 74.5258 32.4223 74.6444C32.0447 74.7631 31.6443 74.7897 31.2545 74.722C31.0893 74.7518 30.9383 74.8344 30.8242 74.9574C30.71 75.0803 30.6389 75.237 30.6214 75.4039C30.6039 75.5708 30.6411 75.7388 30.7273 75.8828C30.8135 76.0267 30.9441 76.1388 31.0995 76.2022C32.3317 76.4425 35.4317 75.652 34.525 74.0245C34.4519 73.9528 34.3654 73.8964 34.2704 73.8583C34.1754 73.8203 34.0738 73.8015 33.9715 73.8029C33.8692 73.8044 33.7681 73.8261 33.6743 73.8667C33.5804 73.9074 33.4955 73.9663 33.4245 74.04Z" fill="#001434"/>
<path d="M35.0141 69.8393C33.6966 69.5836 34.0686 71.6296 31.8289 70.8158C30.6509 70.8158 30.0154 72.6061 28.4964 72.4666C27.6594 72.7611 26.9464 71.3351 26.1714 71.9861C25.2569 74.8846 30.8214 74.1328 31.8754 72.3813C33.2471 72.9626 36.6416 71.3893 35.0141 69.8393Z" fill="#001434"/>
<path d="M106.205 26.827C113.071 26.1372 110.855 18.302 103.415 20.8595C100.075 22.6497 102.066 27.2377 106.205 26.827ZM106.034 22.0065C107.398 22.0065 108.313 22.0762 108.607 22.859C108.902 23.6417 108.786 25.1065 107.577 25.184C106.886 23.9865 105.97 22.9338 104.88 22.084C105.262 22.0278 105.648 22.0019 106.034 22.0065Z" fill="#001434"/>
<path d="M31.7271 59.8498C33.0988 60.1443 33.5018 57.5248 35.4238 57.4086C35.5782 57.3349 35.7039 57.2122 35.7813 57.0596C35.8587 56.9069 35.8833 56.733 35.8515 56.5649C35.8196 56.3968 35.733 56.2439 35.6052 56.1302C35.4774 56.0164 35.3155 55.9482 35.1448 55.9361C33.2228 56.3856 30.4173 58.4936 31.7271 59.8498Z" fill="#001434"/>
<path d="M110.404 46.8762C117.17 51.2627 123.029 46.6592 117.232 43.7762C120.805 37.0492 111.032 37.863 109.482 45.086C109.406 45.2628 109.369 45.4543 109.376 45.6469C109.382 45.8394 109.431 46.0281 109.52 46.1994C109.608 46.3706 109.733 46.5202 109.886 46.6372C110.039 46.7543 110.216 46.8359 110.404 46.8762ZM115.411 40.6297C118.224 40.8002 115.287 43.0322 115.411 44.4117C115.566 45.272 118.271 45.3727 117.999 46.295C116.628 48.7905 112.776 46.109 110.931 45.4812C112.21 42.0247 114.132 40.684 115.411 40.6297Z" fill="#001434"/>
<path d="M36.5957 82.0222C36.4293 81.9694 36.2499 81.9742 36.0866 82.036C35.9234 82.0978 35.7857 82.2129 35.696 82.3627C35.6063 82.5125 35.5698 82.6882 35.5925 82.8613C35.6151 83.0344 35.6955 83.1948 35.8207 83.3165C40.5172 86.0755 40.2459 86.9823 38.9207 91.3378C38.8277 92.1128 37.7892 93.5543 38.9207 93.9883C40.0909 94.2285 40.0057 92.4383 40.3467 91.7718C41.8114 87.021 42.0284 85.2152 36.5957 82.0222Z" fill="#001434"/>
<path d="M33.2882 61.3999C31.808 66.0499 38.7132 68.5764 40.7825 64.4999C43.371 59.5399 34.9312 56.4554 33.2882 61.3999ZM34.7065 61.8649C34.7888 61.6196 34.9148 61.3911 35.0785 61.1907C36.447 62.1973 37.9891 62.9434 39.6277 63.3917C38.8527 66.3987 33.7377 64.9572 34.7065 61.8417V61.8649Z" fill="#001434"/>
<path d="M27.3824 67.22C28.7386 67.065 27.6226 64.6082 29.1184 64.2982C30.2964 63.469 31.1411 65.8482 32.2726 65.2282C33.4274 63.2675 29.2889 62.1747 28.5371 62.9497C27.1499 63.2907 25.5069 66.5147 27.3824 67.22Z" fill="#001434"/>
<path d="M31.7985 67.7006C30.5895 67.4604 26.761 69.4521 29.0783 70.4054C29.9928 70.0954 30.7058 69.0491 31.814 69.1964C31.9778 69.1501 32.1217 69.0512 32.2237 68.9149C32.3256 68.7787 32.3799 68.6127 32.3781 68.4426C32.3764 68.2724 32.3187 68.1076 32.2139 67.9735C32.1092 67.8394 31.9632 67.7435 31.7985 67.7006Z" fill="#001434"/>
<path d="M18.5617 63.2363C19.5615 62.8643 20.8867 62.0428 22.3592 62.5311C22.5275 62.5366 22.693 62.4873 22.8307 62.3904C22.9684 62.2936 23.0708 62.1545 23.1224 61.9943C23.1741 61.8341 23.1722 61.6614 23.117 61.5024C23.0618 61.3433 22.9563 61.2066 22.8165 61.1128C21.0262 60.2913 15.8957 61.9421 18.5617 63.2363Z" fill="#001434"/>
<path d="M20.4975 63.5309C15.1422 64.4764 16.6845 72.3039 21.5825 71.9009C27.6275 71.8544 26.7827 62.0429 20.4975 63.5309ZM19.5287 65.5537C20.8938 66.7457 22.4938 67.638 24.2252 68.1732C22.8845 73.2804 15.9095 68.6692 19.5287 65.5537Z" fill="#001434"/>
</svg>
