<svg width="157" height="91" viewBox="0 0 157 91" fill="none" xmlns="http://www.w3.org/2000/svg">
<g clip-path="url(#clip0_252_32)">
<path d="M30.5241 61.2467C82.6612 65.3853 137.601 44.8812 156.827 1.71271C156.911 1.48439 156.9 1.22548 156.796 0.982264C156.691 0.739044 156.499 0.527454 156.255 0.385349C156.011 0.243244 155.73 0.179903 155.463 0.206694C155.195 0.233484 154.959 0.348579 154.796 0.531487C125.852 35.7094 78.8363 52.2706 30.1527 59.179C29.8938 59.227 29.6739 59.3613 29.5328 59.5577C29.3917 59.7541 29.3389 59.9995 29.3838 60.2495C29.4287 60.4995 29.5684 60.7376 29.7776 60.9205C29.9868 61.1034 30.2516 61.2192 30.5241 61.2467Z" fill="#070C29"/>
<path d="M53.1708 35.5786C50.4602 36.134 45.6193 38.4141 26.9324 46.6723C2.74805 58.3242 12.9743 53.3741 2.74805 58.3242C14.6706 62.1786 45.3979 79.1373 50.6038 88.3251" stroke="#070C29" stroke-width="5" stroke-miterlimit="1.5" stroke-linecap="round" stroke-linejoin="round"/>
</g>
<defs>
<clipPath id="clip0_252_32">
<rect width="157" height="91" fill="white"/>
</clipPath>
</defs>
</svg>
